<svg width="61" height="60" viewBox="0 0 61 60" fill="none" xmlns="http://www.w3.org/2000/svg">
<path d="M36.6846 55.8656C48.6093 55.0543 58.1058 45.1542 58.8867 32.7265C59.0378 30.2954 59.0378 27.7765 58.8867 25.3454C58.1058 12.9206 48.6093 3.02639 36.6846 2.2092C32.566 1.93027 28.434 1.93027 24.3153 2.2092C12.3906 3.02346 2.89415 12.9206 2.11323 25.3483C1.96226 27.8062 1.96226 30.2715 2.11323 32.7294C2.39824 37.2547 4.34484 41.4461 6.63915 44.9843C7.97013 47.4594 7.09231 50.5494 5.70433 53.2529C4.7068 55.2007 4.20519 56.1731 4.60705 56.8761C5.00606 57.5791 5.90383 57.6025 7.69653 57.6464C11.2449 57.7343 13.6361 56.7033 15.5342 55.2651C16.6087 54.448 17.1474 54.0408 17.5179 53.994C17.8884 53.9471 18.6209 54.2576 20.0801 54.8727C21.3911 55.4292 22.9159 55.7719 24.3125 55.8685C28.3738 56.1438 32.6176 56.1438 36.6875 55.8685" fill="url(#paint0_linear_493_1255)"/>
<path d="M36.6846 55.8656C48.6093 55.0543 58.1058 45.1542 58.8867 32.7265C59.0378 30.2954 59.0378 27.7765 58.8867 25.3454C58.1058 12.9206 48.6093 3.02639 36.6846 2.2092C32.566 1.93027 28.434 1.93027 24.3153 2.2092C12.3906 3.02346 2.89415 12.9206 2.11323 25.3483C1.96226 27.8062 1.96226 30.2715 2.11323 32.7294C2.39824 37.2547 4.34484 41.4461 6.63915 44.9843C7.97013 47.4594 7.09231 50.5495 5.70433 53.2529C4.7068 55.2007 4.20519 56.1731 4.60705 56.8761C5.00606 57.5791 5.90383 57.6025 7.69653 57.6464C11.2449 57.7343 13.6361 56.7033 15.5342 55.2651C16.6087 54.448 17.1474 54.0408 17.5179 53.994C17.8884 53.9471 18.6209 54.2576 20.0801 54.8727C21.3911 55.4292 22.9159 55.7719 24.3125 55.8685C28.3738 56.1438 32.6176 56.1438 36.6875 55.8685" stroke="white" stroke-width="4" stroke-linecap="round" stroke-linejoin="round"/>
<path d="M36.6846 55.8656C48.6093 55.0543 58.1058 45.1542 58.8867 32.7265C59.0378 30.2954 59.0378 27.7765 58.8867 25.3454C58.1058 12.9206 48.6093 3.02639 36.6846 2.2092C32.566 1.93027 28.434 1.93027 24.3153 2.2092C12.3906 3.02346 2.89415 12.9206 2.11323 25.3483C1.96226 27.8062 1.96226 30.2715 2.11323 32.7294C2.39824 37.2547 4.34484 41.4461 6.63915 44.9843C7.97013 47.4594 7.09231 50.5494 5.70433 53.2529C4.7068 55.2007 4.20519 56.1731 4.60705 56.8761C5.00606 57.5791 5.90383 57.6025 7.69653 57.6464C11.2449 57.7343 13.6361 56.7033 15.5342 55.2651C16.6087 54.448 17.1474 54.0408 17.5179 53.994C17.8884 53.9471 18.6209 54.2576 20.0801 54.8727C21.3911 55.4292 22.9159 55.7719 24.3125 55.8685C28.3738 56.1438 32.6176 56.1438 36.6875 55.8685" fill="url(#paint1_linear_493_1255)"/>
<path d="M36.6846 55.8656C48.6093 55.0543 58.1058 45.1542 58.8867 32.7265C59.0378 30.2954 59.0378 27.7765 58.8867 25.3454C58.1058 12.9206 48.6093 3.02639 36.6846 2.2092C32.566 1.93027 28.434 1.93027 24.3153 2.2092C12.3906 3.02346 2.89415 12.9206 2.11323 25.3483C1.96226 27.8062 1.96226 30.2715 2.11323 32.7294C2.39824 37.2547 4.34484 41.4461 6.63915 44.9843C7.97013 47.4594 7.09231 50.5495 5.70433 53.2529C4.7068 55.2007 4.20519 56.1731 4.60705 56.8761C5.00606 57.5791 5.90383 57.6025 7.69653 57.6464C11.2449 57.7343 13.6361 56.7033 15.5342 55.2651C16.6087 54.448 17.1474 54.0408 17.5179 53.994C17.8884 53.9471 18.6209 54.2576 20.0801 54.8727C21.3911 55.4292 22.9159 55.7719 24.3125 55.8685C28.3738 56.1438 32.6176 56.1438 36.6875 55.8685" stroke="white" stroke-width="4" stroke-linecap="round" stroke-linejoin="round"/>
<path d="M36.6846 55.8656C48.6093 55.0543 58.1058 45.1542 58.8867 32.7265C59.0378 30.2954 59.0378 27.7765 58.8867 25.3454C58.1058 12.9206 48.6093 3.02639 36.6846 2.2092C32.566 1.93027 28.434 1.93027 24.3153 2.2092C12.3906 3.02346 2.89415 12.9206 2.11323 25.3483C1.96226 27.8062 1.96226 30.2715 2.11323 32.7294C2.39824 37.2547 4.34484 41.4461 6.63915 44.9844C7.97013 47.4594 7.09231 50.5495 5.70433 53.2529C4.7068 55.2007 4.20519 56.1731 4.60705 56.8761C5.00606 57.5791 5.90383 57.6025 7.69653 57.6464C11.2449 57.7343 13.6361 56.7033 15.5342 55.2652C16.6087 54.448 17.1474 54.0408 17.5179 53.994C17.8884 53.9471 18.6209 54.2576 20.0801 54.8727C21.3911 55.4292 22.9159 55.7719 24.3125 55.8685C28.3738 56.1439 32.6176 56.1439 36.6875 55.8685" fill="url(#paint2_linear_493_1255)"/>
<path d="M36.6846 55.8656C48.6093 55.0543 58.1058 45.1542 58.8867 32.7265C59.0378 30.2954 59.0378 27.7765 58.8867 25.3454C58.1058 12.9206 48.6093 3.02639 36.6846 2.2092C32.566 1.93027 28.434 1.93027 24.3153 2.2092C12.3906 3.02346 2.89415 12.9206 2.11323 25.3483C1.96226 27.8062 1.96226 30.2715 2.11323 32.7294C2.39824 37.2547 4.34484 41.4461 6.63915 44.9844C7.97013 47.4594 7.09231 50.5495 5.70433 53.2529C4.7068 55.2007 4.20519 56.1731 4.60705 56.8761C5.00606 57.5791 5.90383 57.6025 7.69653 57.6464C11.2449 57.7343 13.6361 56.7033 15.5342 55.2652C16.6087 54.448 17.1474 54.0408 17.5179 53.994C17.8884 53.9471 18.6209 54.2576 20.0801 54.8727C21.3911 55.4292 22.9159 55.7719 24.3125 55.8685C28.3738 56.1439 32.6176 56.1439 36.6875 55.8685" stroke="white" stroke-width="4" stroke-linecap="round" stroke-linejoin="round"/>
<path d="M17.6748 38.6138L22.9246 22.4281C23.0564 22.0242 23.3084 21.6731 23.6449 21.4243C23.9814 21.1755 24.3854 21.0416 24.8 21.0416C25.2145 21.0416 25.6186 21.1755 25.9551 21.4243C26.2916 21.6731 26.5436 22.0242 26.6753 22.4281L31.9252 38.6138M40.4754 21.0398V38.6138V21.0398ZM20.5249 32.7558H29.0751H20.5249Z" fill="#FE6522"/>
<path d="M17.6748 38.6138L22.9246 22.4281C23.0564 22.0242 23.3084 21.6731 23.6449 21.4243C23.9814 21.1755 24.3854 21.0416 24.8 21.0416C25.2145 21.0416 25.6186 21.1755 25.9551 21.4243C26.2916 21.6731 26.5436 22.0242 26.6753 22.4281L31.9252 38.6138M40.4754 21.0398V38.6138M20.5249 32.7558H29.0751" stroke="white" stroke-width="4" stroke-linecap="round" stroke-linejoin="round"/>
<defs>
<linearGradient id="paint0_linear_493_1255" x1="30.5" y1="2" x2="30.5" y2="57.6516" gradientUnits="userSpaceOnUse">
<stop stop-color="#FE6522"/>
<stop offset="0.28" stop-color="#FE522F"/>
<stop offset="0.5" stop-color="#FE4338"/>
<stop offset="1" stop-color="#FDD631"/>
</linearGradient>
<linearGradient id="paint1_linear_493_1255" x1="30.5" y1="2" x2="30.5" y2="57.6516" gradientUnits="userSpaceOnUse">
<stop stop-color="#FE6522"/>
<stop offset="0.28" stop-color="#FE522F"/>
<stop offset="0.5" stop-color="#FE4338"/>
<stop offset="1" stop-color="#FDD631"/>
</linearGradient>
<linearGradient id="paint2_linear_493_1255" x1="30.5" y1="2" x2="30.5" y2="57.6516" gradientUnits="userSpaceOnUse">
<stop stop-color="#FE6522"/>
<stop offset="0.28" stop-color="#FE522F"/>
<stop offset="0.5" stop-color="#FE4338"/>
<stop offset="1" stop-color="#FDD631"/>
</linearGradient>
</defs>
</svg>
