<svg data-name="Layer 1" viewBox="0 0 32 32" xmlns="http://www.w3.org/2000/svg"><path d="M26.205 17.611C17.31 15.904 16.096 14.69 14.39 5.795a.6.6 0 0 0-1.18 0c-1.706 8.894-2.92 10.109-11.815 11.816a.6.6 0 0 0 0 1.178c8.894 1.707 10.11 2.921 11.816 11.815a.6.6 0 0 0 1.179 0c1.706-8.894 2.92-10.108 11.815-11.815a.6.6 0 0 0 0-1.178ZM25.544 11.063a.6.6 0 0 1-.59-.487c-.6-3.134-.944-3.477-4.078-4.078a.6.6 0 0 1 0-1.179c3.135-.601 3.477-.944 4.079-4.078a.6.6 0 0 1 1.178 0c.601 3.134.944 3.477 4.078 4.078a.6.6 0 0 1 0 1.18c-3.133.6-3.477.943-4.078 4.077a.6.6 0 0 1-.59.487Zm-2.17-5.154a3.399 3.399 0 0 1 2.17 2.17 3.399 3.399 0 0 1 2.17-2.17 3.4 3.4 0 0 1-2.17-2.17 3.4 3.4 0 0 1-2.17 2.17Z" fill="#db66ff" class="fill-000000"></path></svg>