<svg width="55" height="66" viewBox="0 0 55 66" fill="none" xmlns="http://www.w3.org/2000/svg">
<path d="M11.52 56.23H2.415V52.165H11.385V53.155H3.645V55.24H11.52V56.23ZM7.5 58.3V59.635H11.4V62.65H3.495V64H11.805V64.945H2.295V61.75H10.185V60.565H2.25V59.635H6.27V58.3H0.78V57.31H12.96V58.3H7.5ZM16.0188 60.865C16.5888 60.865 17.1238 60.86 17.6238 60.85C18.1338 60.83 18.6188 60.805 19.0788 60.775C19.5488 60.745 20.0138 60.705 20.4738 60.655C20.9338 60.595 21.4038 60.52 21.8838 60.43L22.0038 61.45C21.4938 61.54 20.9988 61.615 20.5188 61.675C20.0488 61.725 19.5638 61.77 19.0638 61.81C18.5738 61.84 18.0638 61.86 17.5338 61.87C17.0138 61.88 16.4488 61.885 15.8388 61.885H14.8038V56.62H19.5888V53.905H14.7738V52.9H20.7888V57.61H16.0188V60.865ZM25.3788 51.64V65.125H24.1488V57.835H21.5838V56.83H24.1488V51.64H25.3788ZM30.4777 58.495H37.3477V56.02H30.4777V58.495ZM40.0177 62.38V63.385H27.8227V62.38H33.2827V59.485H29.2627V52.615H30.4777V55.015H37.3477V52.615H38.5477V59.485H34.5277V62.38H40.0177ZM48.4315 53.11C48.4315 54.08 48.3115 55.02 48.0715 55.93C47.8415 56.83 47.4765 57.685 46.9765 58.495C46.4765 59.305 45.8315 60.055 45.0415 60.745C44.2515 61.435 43.2965 62.055 42.1765 62.605L41.5165 61.6C43.3265 60.74 44.6915 59.675 45.6115 58.405C46.5315 57.135 47.0565 55.7 47.1865 54.1H42.1315V53.11H48.4315ZM52.3765 51.655V65.11H51.1465V51.655H52.3765Z" fill="#818181"/>
<path d="M33 35L23 31.5L15.25 34.5C14.6944 34.7222 14.1806 34.66 13.7083 34.3133C13.2361 33.9667 13 33.5011 13 32.9167V9.58333C13 9.22222 13.1044 8.90278 13.3133 8.625C13.5222 8.34722 13.8067 8.13889 14.1667 8L23 5L33 8.5L40.75 5.5C41.3056 5.27778 41.8194 5.34056 42.2917 5.68833C42.7639 6.03611 43 6.50111 43 7.08333V30.4167C43 30.7778 42.8961 31.0972 42.6883 31.375C42.4806 31.6528 42.1956 31.8611 41.8333 32L33 35ZM31.3333 30.9167V11.4167L24.6667 9.08333V28.5833L31.3333 30.9167Z" fill="#D0D0D0"/>
</svg>
