<svg width="25" height="35" viewBox="0 0 25 35" fill="none" xmlns="http://www.w3.org/2000/svg">
<path d="M12.5001 34.5834C12.1015 34.5834 11.7598 34.4695 11.4751 34.2418C11.1904 34.014 10.9768 33.715 10.8345 33.3449C10.2935 31.7504 9.61015 30.2556 8.78446 28.8605C7.98723 27.4654 6.86258 25.8282 5.4105 23.949C3.95841 22.0699 2.77682 20.2761 1.86571 18.5678C0.983067 16.8595 0.541748 14.7952 0.541748 12.3751C0.541748 9.04383 1.69487 6.22508 4.00112 3.91883C6.33584 1.58411 9.16883 0.416748 12.5001 0.416748C15.8313 0.416748 18.6501 1.58411 20.9563 3.91883C23.2911 6.22508 24.4584 9.04383 24.4584 12.3751C24.4584 14.9661 23.9601 17.1299 22.9636 18.8667C21.9956 20.5751 20.8709 22.2692 19.5897 23.949C18.0522 25.999 16.8848 27.7074 16.0876 29.074C15.3188 30.4122 14.6782 31.8358 14.1657 33.3449C14.0233 33.7435 13.7956 34.0567 13.4824 34.2845C13.1977 34.4838 12.8702 34.5834 12.5001 34.5834ZM12.5001 16.6459C13.6959 16.6459 14.7067 16.2331 15.5324 15.4074C16.3581 14.5817 16.7709 13.5709 16.7709 12.3751C16.7709 11.1792 16.3581 10.1685 15.5324 9.34279C14.7067 8.51709 13.6959 8.10425 12.5001 8.10425C11.3042 8.10425 10.2935 8.51709 9.46779 9.34279C8.64209 10.1685 8.22925 11.1792 8.22925 12.3751C8.22925 13.5709 8.64209 14.5817 9.46779 15.4074C10.2935 16.2331 11.3042 16.6459 12.5001 16.6459Z" fill="#FF9C0E"/>
</svg>
