<svg width="46" height="46" viewBox="0 0 46 46" fill="none" xmlns="http://www.w3.org/2000/svg">
<circle cx="23" cy="23" r="23" fill="white"/>
<path d="M23 19.0731C20.8304 19.0731 19.0731 20.8304 19.0731 23C19.0731 25.1695 20.8304 26.9268 23 26.9268C25.1695 26.9268 26.9268 25.1695 26.9268 23C26.9268 20.8304 25.1695 19.0731 23 19.0731ZM31.7764 22.0182C31.554 20.0275 30.6613 18.1715 29.2449 16.755C27.8284 15.3386 25.9724 14.4459 23.9817 14.2235V13.1829C23.9817 12.6429 23.5399 12.2012 23 12.2012C22.46 12.2012 22.0182 12.6429 22.0182 13.1829V14.2235C20.0275 14.4459 18.1715 15.3386 16.755 16.755C15.3386 18.1715 14.4459 20.0275 14.2235 22.0182H13.1829C12.6429 22.0182 12.2012 22.46 12.2012 23C12.2012 23.5399 12.6429 23.9817 13.1829 23.9817H14.2235C14.4459 25.9724 15.3386 27.8284 16.755 29.2449C18.1715 30.6613 20.0275 31.554 22.0182 31.7764V32.817C22.0182 33.357 22.46 33.7987 23 33.7987C23.5399 33.7987 23.9817 33.357 23.9817 32.817V31.7764C25.9724 31.554 27.8284 30.6613 29.2449 29.2449C30.6613 27.8284 31.554 25.9724 31.7764 23.9817H32.817C33.357 23.9817 33.7987 23.5399 33.7987 23C33.7987 22.46 33.357 22.0182 32.817 22.0182H31.7764ZM23 29.8719C19.2007 29.8719 16.128 26.7992 16.128 23C16.128 19.2007 19.2007 16.128 23 16.128C26.7992 16.128 29.8719 19.2007 29.8719 23C29.8719 26.7992 26.7992 29.8719 23 29.8719Z" fill="#484848"/>
</svg>
