<svg width="61" height="61" viewBox="0 0 61 61" fill="none" xmlns="http://www.w3.org/2000/svg">
<path d="M36.6846 57.1707C48.6093 56.3397 58.1058 46.1998 58.8867 33.4709C59.0378 30.981 59.0378 28.401 58.8867 25.911C58.1058 13.1852 48.6093 3.05126 36.6846 2.21427C32.566 1.92858 28.434 1.92858 24.3153 2.21427C12.3906 3.04826 2.89415 13.1852 2.11323 25.914C1.96226 28.4315 1.96226 30.9565 2.11323 33.4739C2.39824 38.1089 4.34484 42.4018 6.63915 46.0258C7.97014 48.5608 7.09231 51.7257 5.70433 54.4947C4.7068 56.4897 4.20519 57.4857 4.60705 58.2057C5.00606 58.9257 5.90383 58.9497 7.69653 58.9947C11.2449 59.0847 13.6361 58.0287 15.5342 56.5557C16.6087 55.7187 17.1474 55.3017 17.5179 55.2537C17.8884 55.2057 18.6209 55.5237 20.0801 56.1537C21.3911 56.7237 22.9159 57.0747 24.3125 57.1737C28.3738 57.4557 32.6176 57.4557 36.6875 57.1737" fill="url(#paint0_linear_666_530)"/>
<path d="M36.6846 57.1707C48.6093 56.3397 58.1058 46.1998 58.8867 33.4709C59.0378 30.981 59.0378 28.401 58.8867 25.911C58.1058 13.1852 48.6093 3.05126 36.6846 2.21427C32.566 1.92858 28.434 1.92858 24.3153 2.21427C12.3906 3.04826 2.89415 13.1852 2.11323 25.914C1.96226 28.4315 1.96226 30.9565 2.11323 33.4739C2.39824 38.1089 4.34484 42.4018 6.63915 46.0258C7.97014 48.5608 7.09231 51.7257 5.70433 54.4947C4.7068 56.4897 4.20519 57.4857 4.60705 58.2057C5.00606 58.9257 5.90383 58.9497 7.69653 58.9947C11.2449 59.0847 13.6361 58.0287 15.5342 56.5557C16.6087 55.7187 17.1474 55.3017 17.5179 55.2537C17.8884 55.2057 18.6209 55.5237 20.0801 56.1537C21.3911 56.7237 22.9159 57.0747 24.3125 57.1737C28.3738 57.4557 32.6176 57.4557 36.6875 57.1737" stroke="white" stroke-width="4" stroke-linecap="round" stroke-linejoin="round"/>
<rect x="7" y="7" width="47" height="45" rx="21" fill="white"/>
<path d="M39.4625 32.107H21.4445C21.2485 32.107 21.1295 32.072 21.0875 32.002C21.0455 31.932 21.0245 31.813 21.0245 31.645V30.28C21.0245 30.126 21.0525 30.021 21.1085 29.965C21.1645 29.895 21.2765 29.86 21.4445 29.86H29.0045V28.957C27.6885 28.803 26.6665 28.446 25.9385 27.886C25.2105 27.312 24.8465 26.626 24.8465 25.828C24.8465 25.24 25.0915 24.687 25.5815 24.169H23.1245C22.8445 24.169 22.7045 24.029 22.7045 23.749V22.468C22.7045 22.314 22.7395 22.209 22.8095 22.153C22.8795 22.097 22.9915 22.069 23.1455 22.069H37.8035C37.9575 22.069 38.0625 22.097 38.1185 22.153C38.1885 22.209 38.2235 22.314 38.2235 22.468V23.77C38.2235 24.036 38.0835 24.169 37.8035 24.169H35.3255C35.8295 24.673 36.0815 25.226 36.0815 25.828C36.0815 26.626 35.7175 27.312 34.9895 27.886C34.2615 28.446 33.2395 28.803 31.9235 28.957V29.86H39.4625C39.5885 29.86 39.6935 29.888 39.7775 29.944C39.8615 30 39.9035 30.112 39.9035 30.28V31.645C39.9035 31.953 39.7565 32.107 39.4625 32.107ZM35.4935 39.205H25.5395C25.1895 39.205 24.9095 39.184 24.6995 39.142C24.4895 39.1 24.3215 39.016 24.1955 38.89C24.0835 38.778 24.0065 38.624 23.9645 38.428C23.9225 38.232 23.9015 37.98 23.9015 37.672V34.522C23.9015 33.92 24.0065 33.514 24.2165 33.304C24.4405 33.094 24.8395 32.989 25.4135 32.989H35.3885C35.7385 32.989 36.0185 33.017 36.2285 33.073C36.4385 33.115 36.5995 33.192 36.7115 33.304C36.8375 33.416 36.9215 33.577 36.9635 33.787C37.0055 33.983 37.0265 34.235 37.0265 34.543V37.693C37.0265 38.001 36.9985 38.253 36.9425 38.449C36.9005 38.645 36.8165 38.799 36.6905 38.911C36.5785 39.023 36.4245 39.1 36.2285 39.142C36.0325 39.184 35.7875 39.205 35.4935 39.205ZM33.6455 21.271H27.2825C27.1705 21.271 27.0655 21.25 26.9675 21.208C26.8835 21.152 26.8415 21.033 26.8415 20.851V19.486C26.8415 19.304 26.8835 19.192 26.9675 19.15C27.0655 19.094 27.1705 19.066 27.2825 19.066H33.6455C33.9535 19.066 34.1075 19.213 34.1075 19.507V20.83C34.1075 20.984 34.0795 21.096 34.0235 21.166C33.9675 21.236 33.8415 21.271 33.6455 21.271ZM34.1075 35.467C34.1075 35.299 34.0305 35.215 33.8765 35.215H27.0515C26.8835 35.215 26.7995 35.306 26.7995 35.488V36.706C26.7995 36.874 26.8835 36.958 27.0515 36.958H33.8555C33.9535 36.958 34.0165 36.951 34.0445 36.937C34.0865 36.909 34.1075 36.825 34.1075 36.685V35.467ZM30.4535 24.274C29.5715 24.274 28.8995 24.421 28.4375 24.715C27.9895 25.009 27.7655 25.324 27.7655 25.66C27.7655 25.996 27.9895 26.318 28.4375 26.626C28.8995 26.92 29.5715 27.067 30.4535 27.067C31.3355 27.067 32.0075 26.92 32.4695 26.626C32.9315 26.318 33.1625 25.996 33.1625 25.66C33.1625 25.324 32.9315 25.009 32.4695 24.715C32.0075 24.421 31.3355 24.274 30.4535 24.274Z" fill="url(#paint1_linear_666_530)"/>
<defs>
<linearGradient id="paint0_linear_666_530" x1="30.5" y1="2" x2="30.5" y2="59" gradientUnits="userSpaceOnUse">
<stop stop-color="#FE6522"/>
<stop offset="0.28" stop-color="#FE522F"/>
<stop offset="0.5" stop-color="#FE4338"/>
<stop offset="1" stop-color="#FDD631"/>
</linearGradient>
<linearGradient id="paint1_linear_666_530" x1="30.5" y1="19" x2="30.5" y2="39" gradientUnits="userSpaceOnUse">
<stop stop-color="#FE6522"/>
<stop offset="0.63" stop-color="#FE522F"/>
<stop offset="1" stop-color="#FE9E38"/>
</linearGradient>
</defs>
</svg>
