<svg width="27" height="36" viewBox="0 0 27 36" fill="none" xmlns="http://www.w3.org/2000/svg">
<path d="M4.40894 33.448C4.69694 33.448 4.98227 33.4453 5.26494 33.44C5.5476 33.4293 5.83294 33.416 6.12094 33.4C6.41427 33.3787 6.7156 33.352 7.02494 33.32C7.33427 33.2827 7.65694 33.2373 7.99294 33.184L8.03294 33.544C7.6916 33.5973 7.36627 33.6427 7.05694 33.68C6.7476 33.712 6.4436 33.7387 6.14494 33.76C5.8516 33.776 5.56094 33.7893 5.27294 33.8C4.99027 33.8053 4.70227 33.808 4.40894 33.808H3.84094V31.192H6.64894V29.512H3.81694V29.144H7.06494V31.552H4.26494V33.448H4.40894ZM9.18494 28.456V35.568H8.76094V28.456H9.18494ZM16.6323 32.504C16.3976 32.4453 16.147 32.352 15.8803 32.224C15.619 32.096 15.363 31.9413 15.1123 31.76C14.867 31.5733 14.643 31.3627 14.4403 31.128C14.2376 30.8933 14.0803 30.6373 13.9683 30.36C13.8563 30.6373 13.699 30.8933 13.4963 31.128C13.299 31.3627 13.0776 31.5733 12.8323 31.76C12.587 31.9413 12.331 32.096 12.0643 32.224C11.7976 32.3467 11.547 32.44 11.3123 32.504L11.1123 32.144C11.3683 32.0907 11.6483 31.9893 11.9523 31.84C12.2563 31.6853 12.5416 31.496 12.8083 31.272C13.075 31.0427 13.2963 30.784 13.4723 30.496C13.6536 30.2027 13.7443 29.8907 13.7443 29.56V28.992H14.1843V29.56C14.1843 29.7787 14.227 29.9893 14.3123 30.192C14.3976 30.3947 14.5096 30.5867 14.6483 30.768C14.787 30.9493 14.947 31.1173 15.1283 31.272C15.3096 31.4213 15.499 31.5573 15.6963 31.68C15.8936 31.7973 16.0883 31.896 16.2803 31.976C16.4776 32.056 16.6616 32.112 16.8323 32.144L16.6323 32.504ZM17.2163 34.184V34.544H10.7683V34.184H17.2163ZM23.8077 32.744H18.9997V29.112H23.7357V29.472H19.4317V30.72H23.5837V31.072H19.4317V32.384H23.8077V32.744ZM24.5757 34.224V34.584H18.1277V34.224H24.5757Z" fill="#9B9B9B"/>
<line y1="4.25" x2="27" y2="4.25" stroke="#B1B1B1" stroke-width="1.5"/>
<line y1="13.25" x2="27" y2="13.25" stroke="#B1B1B1" stroke-width="1.5"/>
<line y1="21.25" x2="27" y2="21.25" stroke="#B1B1B1" stroke-width="1.5"/>
</svg>
