<svg width="27" height="37" viewBox="0 0 27 37" fill="none" xmlns="http://www.w3.org/2000/svg">
<path d="M9 20.25L1.125 24.75V6.75L9 2.25M9 20.25L18 24.75M9 20.25V2.25M18 24.75L25.875 20.25V2.25L18 6.75M18 24.75V6.75M18 6.75L9 2.25" stroke="#B1B1B1" stroke-width="1.5" stroke-linecap="round" stroke-linejoin="round"/>
<path d="M8.99663 31.776C8.99663 32.0853 9.05529 32.3893 9.17263 32.688C9.28996 32.9867 9.44196 33.264 9.62863 33.52C9.82063 33.776 10.034 34.0053 10.2686 34.208C10.5086 34.4053 10.7486 34.5573 10.9886 34.664L10.7326 35C10.5353 34.904 10.338 34.7787 10.1406 34.624C9.94329 34.4693 9.75663 34.2933 9.58063 34.096C9.40996 33.8987 9.25529 33.6827 9.11663 33.448C8.97796 33.2133 8.86863 32.968 8.78863 32.712C8.70863 32.9787 8.60196 33.2373 8.46863 33.488C8.33529 33.7387 8.18329 33.9733 8.01263 34.192C7.84196 34.4053 7.65796 34.5973 7.46063 34.768C7.26863 34.9333 7.07663 35.0693 6.88463 35.176L6.62063 34.832C6.84996 34.7147 7.07929 34.5493 7.30863 34.336C7.54329 34.1173 7.75396 33.872 7.94063 33.6C8.13263 33.3227 8.28729 33.0267 8.40463 32.712C8.52196 32.3973 8.58063 32.0853 8.58063 31.776V30.576H6.82063V30.208H10.7886V30.576H8.99663V31.776ZM12.3566 29.456V36.56H11.9326V29.456H12.3566ZM20.396 35.248V35.608H13.948V35.248H16.948V33.224H14.812V30.064H19.54V30.424H15.236V32.864H19.612V33.224H17.372V35.248H20.396Z" fill="#9B9B9B"/>
</svg>
